Coordinates
version=1
nRows=7
nColumns=42
inDegrees=yes

Units are S.I. units (second, meters, Newtons, ...)
If the header above contains a line with 'inDegrees', this indicates whether rotational values are in degrees (yes) or radians (no).

endheader
time	pelvis_tilt	pelvis_list	pelvis_rotation	pelvis_tx	pelvis_ty	pelvis_tz	hip_flexion_r	hip_adduction_r	hip_rotation_r	knee_angle_r	knee_adduction_r	knee_angle_r_beta	ankle_angle_r	subtalar_angle_r	mtp_angle_r	hip_flexion_l	hip_adduction_l	hip_rotation_l	knee_angle_l	knee_adduction_l	knee_angle_l_beta	ankle_angle_l	subtalar_angle_l	mtp_angle_l	lumbar_extension	lumbar_bending	lumbar_rotation	arm_flex_r	arm_add_r	arm_rot_r	elbow_flex_r	pro_sup_r	wrist_flex_r	wrist_dev_r	arm_flex_l	arm_add_l	arm_rot_l	elbow_flex_l	pro_sup_l	wrist_flex_l	wrist_dev_l
      0.42000000	      9.65259499	      0.21692491	      0.15164701	     -0.40827364	      0.84262176	     -0.29784397	     -9.32919156	      1.06650864	    -11.66489571	     11.61395158	      4.20940078	      0.20270169	     16.51796292	      5.31238228	     -7.87079927	     12.13336785	     -5.94997034	     -7.39370732	     60.91551330	     -0.37396780	      1.06317627	     10.44644677	    -12.16344856	     -7.87079927	    -21.14785597	     -1.12532626	      4.33794872	      1.44856302	    -13.79944975	    -10.26792081	     33.75956180	     90.00000001	      0.00000000	      0.00000000	      0.25188544	     -9.08393557	    -21.84562962	     35.65498781	     90.00000001	      0.00000000	      0.00000000
      0.43000000	      9.61521087	      0.74225147	     -0.40159871	     -0.39383175	      0.84336023	     -0.29606019	    -11.12537106	      0.57383800	    -11.35767310	     10.17335528	      4.34839223	      0.17755855	     16.72179783	      5.91197455	     -7.85844121	     13.37473513	     -5.02284933	     -8.05339733	     57.99913570	     -0.17762015	      1.01227588	     10.80358414	    -12.31210805	     -7.85844121	    -21.07047079	     -2.03550812	      5.25846124	      1.54872618	    -14.01866879	     -9.81075797	     34.28763796	     90.00000001	      0.00000000	      0.00000000	     -0.32941985	     -9.22681699	    -23.04445965	     34.85030438	     90.00000001	      0.00000000	      0.00000000
      0.44000000	      9.61828707	      1.17248419	     -0.98631613	     -0.37935822	      0.84367657	     -0.29431735	    -12.93287400	      0.13855101	    -11.12749747	      8.78189453	      4.50408507	      0.15327297	     16.87411653	      6.43522849	     -7.84639670	     14.38109576	     -4.24662752	     -8.81365259	     54.70975059	      0.06541938	      0.95486528	     10.93235903	    -12.69156009	     -7.84639670	    -21.01366618	     -2.82484733	      6.21843912	      1.66885684	    -14.32479846	     -9.22407704	     34.83718405	     90.00000001	      0.00000000	      0.00000000	     -0.91265977	     -9.32518208	    -24.48941909	     34.10805194	     90.00000001	      0.00000000	      0.00000000
      0.45000000	      9.67513242	      1.52643406	     -1.58318681	     -0.36478292	      0.84359532	     -0.29265829	    -14.76975976	     -0.26593888	    -11.03734688	      7.45381414	      4.68107511	      0.13009360	     17.00248983	      6.84502536	     -7.83263771	     15.12366507	     -3.56869296	     -9.64721352	     51.03838918	      0.32573069	      0.89078794	     10.83394743	    -13.23545788	     -7.83263771	    -21.00031557	     -3.51499925	      7.18025197	      1.78464344	    -14.71007689	     -8.48813893	     35.38004151	     90.00000001	      0.00000000	      0.00000000	     -1.50658417	     -9.37736229	    -26.27269802	     33.42997902	     90.00000001	      0.00000000	      0.00000000
      0.46000000	      9.61263817	      1.71017580	     -2.11872067	     -0.35026358	      0.84288015	     -0.29104392	    -16.39059009	     -0.47708812	    -11.11380592	      6.28722704	      4.81919397	      0.10973281	     17.12819961	      7.33907955	     -7.81944762	     15.89471983	     -3.11754914	    -10.49501909	     47.18355482	      0.58961884	      0.82350838	     10.83409568	    -13.71533518	     -7.81944762	    -20.84816679	     -3.99165510	      8.10878942	      1.94055415	    -15.12526948	     -7.81165974	     35.87659466	     90.00000001	      0.00000000	      0.00000000	     -2.14518538	     -9.47268102	    -27.97356609	     32.79844993	     90.00000001	      0.00000000	      0.00000000
      0.47000000	      9.59574096	      1.84368293	     -2.61669319	     -0.33565159	      0.84178457	     -0.28971571	    -18.00941584	     -0.70005059	    -11.40882759	      5.26985650	      5.02132836	      0.09197635	     17.28684565	      7.85470391	     -7.80430599	     16.41893621	     -2.71474794	    -11.42957831	     43.03443307	      0.87428369	      0.75109255	     10.79496927	    -13.99050173	     -7.80430599	    -20.73963893	     -4.35571953	      8.94764925	      2.15578972	    -15.60387994	     -7.07606907	     36.36409056	     90.00000001	      0.00000000	      0.00000000	     -2.80348348	     -9.49394025	    -29.96218660	     32.20729150	     90.00000001	      0.00000000	      0.00000000
      0.48000000	      9.37911758	      1.74381844	     -3.12358610	     -0.32109139	      0.84004589	     -0.28818568	    -19.29390973	     -0.64516904	    -11.70750206	      4.46601541	      5.15690357	      0.07794667	     17.50736111	      8.65843427	     -7.79391041	     17.04465371	     -2.69506662	    -12.32662108	     38.84473148	      1.32624560	      0.67796846	     11.11748037	    -13.65989943	     -7.79391041	    -20.40927971	     -4.47852120	      9.90479091	      2.38779022	    -16.04892103	     -6.56350191	     36.71954559	     90.00000001	      0.00000000	      0.00000000	     -3.52759601	     -9.61168842	    -31.38594022	     31.62562653	     90.00000001	      0.00000000	      0.00000000
